<svg width="1200" height="780" viewBox="0 0 1200 780" fill="none" xmlns="http://www.w3.org/2000/svg">
  <rect width="1200" height="780" fill="url(#gradient)"/>
  <defs>
    <linearGradient id="gradient" x1="0" y1="0" x2="1200" y2="780" gradientUnits="userSpaceOnUse">
      <stop offset="0%" stop-color="#000000"/>
      <stop offset="50%" stop-color="#0070f3"/>
      <stop offset="100%" stop-color="#7928ca"/>
    </linearGradient>
  </defs>
  
  <!-- Background decorative circles -->
  <circle cx="200" cy="150" r="100" fill="rgba(255,255,255,0.05)"/>
  <circle cx="1000" cy="630" r="120" fill="rgba(255,255,255,0.05)"/>
  
  <!-- Main container -->
  <rect x="300" y="200" width="600" height="380" rx="20" fill="rgba(255,255,255,0.08)" stroke="rgba(255,255,255,0.15)" stroke-width="2"/>
  
  <!-- Search icon (Google style) -->
  <circle cx="450" cy="320" r="50" fill="none" stroke="rgba(255,255,255,0.4)" stroke-width="4"/>
  <circle cx="450" cy="320" r="30" fill="none" stroke="rgba(255,255,255,0.6)" stroke-width="3"/>
  <line x1="485" y1="355" x2="520" y2="390" stroke="rgba(255,255,255,0.6)" stroke-width="4" stroke-linecap="round"/>
  
  <!-- Next.js logo -->
  <circle cx="750" cy="320" r="50" fill="rgba(255,255,255,0.1)" stroke="rgba(255,255,255,0.3)" stroke-width="3"/>
  <text x="750" y="340" font-family="Arial, sans-serif" font-size="40" font-weight="bold" fill="rgba(255,255,255,0.9)" text-anchor="middle">N</text>
  
  <!-- SEO elements -->
  <!-- Chart/Graph -->
  <rect x="350" y="450" width="200" height="100" rx="8" fill="rgba(255,255,255,0.05)" stroke="rgba(255,255,255,0.2)" stroke-width="2"/>
  <line x1="370" y1="520" x2="390" y2="500" stroke="rgba(0,112,243,0.8)" stroke-width="3" stroke-linecap="round"/>
  <line x1="390" y1="500" x2="410" y2="480" stroke="rgba(0,112,243,0.8)" stroke-width="3" stroke-linecap="round"/>
  <line x1="410" y1="480" x2="430" y2="490" stroke="rgba(0,112,243,0.8)" stroke-width="3" stroke-linecap="round"/>
  <line x1="430" y1="490" x2="450" y2="470" stroke="rgba(0,112,243,0.8)" stroke-width="3" stroke-linecap="round"/>
  <line x1="450" y1="470" x2="470" y2="460" stroke="rgba(0,112,243,0.8)" stroke-width="3" stroke-linecap="round"/>
  <line x1="470" y1="460" x2="490" y2="450" stroke="rgba(0,112,243,0.8)" stroke-width="3" stroke-linecap="round"/>
  <line x1="490" y1="450" x2="510" y2="440" stroke="rgba(0,112,243,0.8)" stroke-width="3" stroke-linecap="round"/>
  <line x1="510" y1="440" x2="530" y2="430" stroke="rgba(0,112,243,0.8)" stroke-width="3" stroke-linecap="round"/>
  
  <!-- Checkmarks -->
  <circle cx="650" cy="460" r="20" fill="rgba(76,175,80,0.3)" stroke="rgba(76,175,80,0.8)" stroke-width="2"/>
  <path d="M 640 460 L 648 468 L 660 450" stroke="rgba(76,175,80,1)" stroke-width="3" stroke-linecap="round" stroke-linejoin="round" fill="none"/>
  
  <circle cx="700" cy="500" r="20" fill="rgba(76,175,80,0.3)" stroke="rgba(76,175,80,0.8)" stroke-width="2"/>
  <path d="M 690 500 L 698 508 L 710 490" stroke="rgba(76,175,80,1)" stroke-width="3" stroke-linecap="round" stroke-linejoin="round" fill="none"/>
  
  <circle cx="750" cy="480" r="20" fill="rgba(76,175,80,0.3)" stroke="rgba(76,175,80,0.8)" stroke-width="2"/>
  <path d="M 740 480 L 748 488 L 760 470" stroke="rgba(76,175,80,1)" stroke-width="3" stroke-linecap="round" stroke-linejoin="round" fill="none"/>
  
  <!-- Code brackets -->
  <text x="800" y="460" font-family="monospace" font-size="32" fill="rgba(255,255,255,0.5)">&lt;</text>
  <text x="850" y="460" font-family="monospace" font-size="32" fill="rgba(255,255,255,0.5)">/&gt;</text>
  
  <!-- Title -->
  <text x="600" y="120" font-family="Arial, sans-serif" font-size="48" font-weight="bold" fill="rgba(255,255,255,0.95)" text-anchor="middle">راهنمای کامل سئو</text>
  <text x="600" y="170" font-family="Arial, sans-serif" font-size="28" fill="rgba(255,255,255,0.8)" text-anchor="middle">Next.js</text>
  
  <!-- Decorative lines -->
  <line x1="200" y1="600" x2="1000" y2="600" stroke="rgba(255,255,255,0.1)" stroke-width="2" stroke-dasharray="10,5"/>
  
  <!-- SEO badges/icons -->
  <rect x="200" y="650" width="80" height="80" rx="12" fill="rgba(255,255,255,0.08)" stroke="rgba(255,255,255,0.2)" stroke-width="2"/>
  <text x="240" y="700" font-family="Arial, sans-serif" font-size="24" font-weight="bold" fill="rgba(255,255,255,0.7)" text-anchor="middle">SEO</text>
  
  <rect x="320" y="650" width="80" height="80" rx="12" fill="rgba(255,255,255,0.08)" stroke="rgba(255,255,255,0.2)" stroke-width="2"/>
  <circle cx="360" cy="680" r="15" fill="rgba(255,255,255,0.3)"/>
  <line x1="360" y1="695" x2="360" y2="710" stroke="rgba(255,255,255,0.5)" stroke-width="2" stroke-linecap="round"/>
  
  <rect x="440" y="650" width="80" height="80" rx="12" fill="rgba(255,255,255,0.08)" stroke="rgba(255,255,255,0.2)" stroke-width="2"/>
  <rect x="460" y="670" width="8" height="20" fill="rgba(255,255,255,0.5)"/>
  <rect x="475" y="665" width="8" height="25" fill="rgba(255,255,255,0.5)"/>
  <rect x="490" y="675" width="8" height="15" fill="rgba(255,255,255,0.5)"/>
  
  <rect x="800" y="650" width="80" height="80" rx="12" fill="rgba(255,255,255,0.08)" stroke="rgba(255,255,255,0.2)" stroke-width="2"/>
  <text x="840" y="700" font-family="Arial, sans-serif" font-size="20" font-weight="bold" fill="rgba(255,255,255,0.7)" text-anchor="middle">Meta</text>
  
  <rect x="920" y="650" width="80" height="80" rx="12" fill="rgba(255,255,255,0.08)" stroke="rgba(255,255,255,0.2)" stroke-width="2"/>
  <text x="960" y="690" font-family="Arial, sans-serif" font-size="18" font-weight="bold" fill="rgba(255,255,255,0.7)" text-anchor="middle">XML</text>
  <text x="960" y="710" font-family="Arial, sans-serif" font-size="18" font-weight="bold" fill="rgba(255,255,255,0.7)" text-anchor="middle">Sitemap</text>
</svg>
