<svg width="1200" height="780" viewBox="0 0 1200 780" fill="none" xmlns="http://www.w3.org/2000/svg">
  <rect width="1200" height="780" fill="url(#gradient)"/>
  <defs>
    <linearGradient id="gradient" x1="0" y1="0" x2="1200" y2="780" gradientUnits="userSpaceOnUse">
      <stop offset="0%" stop-color="#0070f3"/>
      <stop offset="50%" stop-color="#7928ca"/>
      <stop offset="100%" stop-color="#ff0080"/>
    </linearGradient>
  </defs>
  
  <!-- Checkmark list items -->
  <circle cx="150" cy="180" r="30" fill="rgba(255,255,255,0.2)" stroke="rgba(255,255,255,0.4)" stroke-width="2"/>
  <path d="M 140 180 L 150 190 L 160 170" stroke="rgba(255,255,255,0.9)" stroke-width="3" stroke-linecap="round" stroke-linejoin="round" fill="none"/>
  
  <circle cx="150" cy="280" r="30" fill="rgba(255,255,255,0.2)" stroke="rgba(255,255,255,0.4)" stroke-width="2"/>
  <path d="M 140 280 L 150 290 L 160 270" stroke="rgba(255,255,255,0.9)" stroke-width="3" stroke-linecap="round" stroke-linejoin="round" fill="none"/>
  
  <circle cx="150" cy="380" r="30" fill="rgba(255,255,255,0.2)" stroke="rgba(255,255,255,0.4)" stroke-width="2"/>
  <path d="M 140 380 L 150 390 L 160 370" stroke="rgba(255,255,255,0.9)" stroke-width="3" stroke-linecap="round" stroke-linejoin="round" fill="none"/>
  
  <circle cx="150" cy="480" r="30" fill="rgba(255,255,255,0.2)" stroke="rgba(255,255,255,0.4)" stroke-width="2"/>
  <path d="M 140 480 L 150 490 L 160 470" stroke="rgba(255,255,255,0.9)" stroke-width="3" stroke-linecap="round" stroke-linejoin="round" fill="none"/>
  
  <!-- SEO Icons -->
  <!-- Search icon -->
  <circle cx="400" cy="250" r="50" fill="rgba(255,255,255,0.1)" stroke="rgba(255,255,255,0.3)" stroke-width="3"/>
  <circle cx="400" cy="250" r="30" fill="none" stroke="rgba(255,255,255,0.6)" stroke-width="3"/>
  <line x1="425" y1="275" x2="460" y2="310" stroke="rgba(255,255,255,0.6)" stroke-width="4" stroke-linecap="round"/>
  
  <!-- Gear/Settings icon -->
  <circle cx="600" cy="250" r="50" fill="rgba(255,255,255,0.1)" stroke="rgba(255,255,255,0.3)" stroke-width="3"/>
  <circle cx="600" cy="250" r="25" fill="none" stroke="rgba(255,255,255,0.6)" stroke-width="3"/>
  <circle cx="600" cy="250" r="15" fill="rgba(255,255,255,0.6)"/>
  <rect x="595" y="200" width="10" height="15" rx="2" fill="rgba(255,255,255,0.6)"/>
  <rect x="595" y="285" width="10" height="15" rx="2" fill="rgba(255,255,255,0.6)"/>
  <rect x="550" y="245" width="15" height="10" rx="2" fill="rgba(255,255,255,0.6)"/>
  <rect x="635" y="245" width="15" height="10" rx="2" fill="rgba(255,255,255,0.6)"/>
  
  <!-- Chart icon -->
  <circle cx="800" cy="250" r="50" fill="rgba(255,255,255,0.1)" stroke="rgba(255,255,255,0.3)" stroke-width="3"/>
  <rect x="780" y="230" width="12" height="30" fill="rgba(255,255,255,0.6)"/>
  <rect x="795" y="220" width="12" height="40" fill="rgba(255,255,255,0.6)"/>
  <rect x="810" y="240" width="12" height="20" fill="rgba(255,255,255,0.6)"/>
  
  <!-- Code/Document icon -->
  <rect x="350" y="400" width="200" height="250" rx="8" fill="rgba(255,255,255,0.1)" stroke="rgba(255,255,255,0.3)" stroke-width="2"/>
  <line x1="370" y1="440" x2="520" y2="440" stroke="rgba(255,255,255,0.4)" stroke-width="2"/>
  <line x1="370" y1="480" x2="500" y2="480" stroke="rgba(255,255,255,0.4)" stroke-width="2"/>
  <line x1="370" y1="520" x2="480" y2="520" stroke="rgba(255,255,255,0.4)" stroke-width="2"/>
  <line x1="370" y1="560" x2="510" y2="560" stroke="rgba(255,255,255,0.4)" stroke-width="2"/>
  
  <!-- Next.js logo style -->
  <circle cx="650" cy="550" r="60" fill="rgba(255,255,255,0.1)" stroke="rgba(255,255,255,0.3)" stroke-width="3"/>
  <text x="650" y="570" font-family="Arial, sans-serif" font-size="36" font-weight="bold" fill="rgba(255,255,255,0.9)" text-anchor="middle">N</text>
  
  <!-- Title -->
  <text x="600" y="100" font-family="Arial, sans-serif" font-size="38" font-weight="bold" fill="rgba(255,255,255,0.95)" text-anchor="middle">راهنمای عملی سئو</text>
  <text x="600" y="140" font-family="Arial, sans-serif" font-size="24" fill="rgba(255,255,255,0.8)" text-anchor="middle">Next.js</text>
  
  <!-- Decorative lines -->
  <line x1="100" y1="350" x2="1100" y2="350" stroke="rgba(255,255,255,0.2)" stroke-width="2" stroke-dasharray="10,5"/>
</svg>

