<svg width="1200" height="780" viewBox="0 0 1200 780" fill="none" xmlns="http://www.w3.org/2000/svg">
  <rect width="1200" height="780" fill="url(#gradient)"/>
  <defs>
    <linearGradient id="gradient" x1="0" y1="0" x2="1200" y2="780" gradientUnits="userSpaceOnUse">
      <stop offset="0%" stop-color="#0070f3"/>
      <stop offset="50%" stop-color="#7928ca"/>
      <stop offset="100%" stop-color="#ff0080"/>
    </linearGradient>
  </defs>
  
  <!-- Checkmark circles -->
  <circle cx="200" cy="200" r="50" fill="rgba(255,255,255,0.15)" stroke="rgba(255,255,255,0.3)" stroke-width="3"/>
  <path d="M 185 200 L 195 210 L 215 185" stroke="rgba(255,255,255,0.9)" stroke-width="4" stroke-linecap="round" stroke-linejoin="round" fill="none"/>
  
  <circle cx="400" cy="200" r="50" fill="rgba(255,255,255,0.15)" stroke="rgba(255,255,255,0.3)" stroke-width="3"/>
  <path d="M 385 200 L 395 210 L 415 185" stroke="rgba(255,255,255,0.9)" stroke-width="4" stroke-linecap="round" stroke-linejoin="round" fill="none"/>
  
  <circle cx="600" cy="200" r="50" fill="rgba(255,255,255,0.15)" stroke="rgba(255,255,255,0.3)" stroke-width="3"/>
  <path d="M 585 200 L 595 210 L 615 185" stroke="rgba(255,255,255,0.9)" stroke-width="4" stroke-linecap="round" stroke-linejoin="round" fill="none"/>
  
  <circle cx="800" cy="200" r="50" fill="rgba(255,255,255,0.15)" stroke="rgba(255,255,255,0.3)" stroke-width="3"/>
  <path d="M 785 200 L 795 210 L 815 185" stroke="rgba(255,255,255,0.9)" stroke-width="4" stroke-linecap="round" stroke-linejoin="round" fill="none"/>
  
  <circle cx="1000" cy="200" r="50" fill="rgba(255,255,255,0.15)" stroke="rgba(255,255,255,0.3)" stroke-width="3"/>
  <path d="M 985 200 L 995 210 L 1015 185" stroke="rgba(255,255,255,0.9)" stroke-width="4" stroke-linecap="round" stroke-linejoin="round" fill="none"/>
  
  <!-- Second row checkmarks -->
  <circle cx="200" cy="400" r="50" fill="rgba(255,255,255,0.15)" stroke="rgba(255,255,255,0.3)" stroke-width="3"/>
  <path d="M 185 400 L 195 410 L 215 385" stroke="rgba(255,255,255,0.9)" stroke-width="4" stroke-linecap="round" stroke-linejoin="round" fill="none"/>
  
  <circle cx="400" cy="400" r="50" fill="rgba(255,255,255,0.15)" stroke="rgba(255,255,255,0.3)" stroke-width="3"/>
  <path d="M 385 400 L 395 410 L 415 385" stroke="rgba(255,255,255,0.9)" stroke-width="4" stroke-linecap="round" stroke-linejoin="round" fill="none"/>
  
  <circle cx="600" cy="400" r="50" fill="rgba(255,255,255,0.15)" stroke="rgba(255,255,255,0.3)" stroke-width="3"/>
  <path d="M 585 400 L 595 410 L 615 385" stroke="rgba(255,255,255,0.9)" stroke-width="4" stroke-linecap="round" stroke-linejoin="round" fill="none"/>
  
  <circle cx="800" cy="400" r="50" fill="rgba(255,255,255,0.15)" stroke="rgba(255,255,255,0.3)" stroke-width="3"/>
  <path d="M 785 400 L 795 410 L 815 385" stroke="rgba(255,255,255,0.9)" stroke-width="4" stroke-linecap="round" stroke-linejoin="round" fill="none"/>
  
  <circle cx="1000" cy="400" r="50" fill="rgba(255,255,255,0.15)" stroke="rgba(255,255,255,0.3)" stroke-width="3"/>
  <path d="M 985 400 L 995 410 L 1015 385" stroke="rgba(255,255,255,0.9)" stroke-width="4" stroke-linecap="round" stroke-linejoin="round" fill="none"/>
  
  <!-- SEO icons -->
  <!-- Search icon (Google) -->
  <circle cx="200" cy="550" r="40" fill="rgba(255,255,255,0.1)" stroke="rgba(255,255,255,0.3)" stroke-width="2"/>
  <circle cx="200" cy="550" r="25" fill="none" stroke="rgba(255,255,255,0.6)" stroke-width="3"/>
  <line x1="220" y1="570" x2="240" y2="590" stroke="rgba(255,255,255,0.6)" stroke-width="3" stroke-linecap="round"/>
  
  <!-- Speed icon -->
  <circle cx="400" cy="550" r="40" fill="rgba(255,255,255,0.1)" stroke="rgba(255,255,255,0.3)" stroke-width="2"/>
  <path d="M 380 550 L 400 530 L 420 550 L 400 570 Z" fill="rgba(255,255,255,0.6)"/>
  
  <!-- Image icon -->
  <circle cx="600" cy="550" r="40" fill="rgba(255,255,255,0.1)" stroke="rgba(255,255,255,0.3)" stroke-width="2"/>
  <rect x="575" y="535" width="30" height="20" rx="2" fill="rgba(255,255,255,0.6)"/>
  <circle cx="585" cy="540" r="3" fill="rgba(0,0,0,0.3)"/>
  
  <!-- Code icon -->
  <circle cx="800" cy="550" r="40" fill="rgba(255,255,255,0.1)" stroke="rgba(255,255,255,0.3)" stroke-width="2"/>
  <text x="800" y="560" font-family="monospace" font-size="20" fill="rgba(255,255,255,0.7)" text-anchor="middle">&lt;/&gt;</text>
  
  <!-- Chart icon -->
  <circle cx="1000" cy="550" r="40" fill="rgba(255,255,255,0.1)" stroke="rgba(255,255,255,0.3)" stroke-width="2"/>
  <rect x="985" y="540" width="8" height="15" fill="rgba(255,255,255,0.6)"/>
  <rect x="997" y="535" width="8" height="20" fill="rgba(255,255,255,0.6)"/>
  <rect x="1009" y="545" width="8" height="10" fill="rgba(255,255,255,0.6)"/>
  
  <!-- Next.js logo style -->
  <circle cx="600" cy="650" r="60" fill="rgba(255,255,255,0.1)" stroke="rgba(255,255,255,0.3)" stroke-width="3"/>
  <text x="600" y="665" font-family="Arial, sans-serif" font-size="32" font-weight="bold" fill="rgba(255,255,255,0.9)" text-anchor="middle">N</text>
  
  <!-- Title -->
  <text x="600" y="100" font-family="Arial, sans-serif" font-size="42" font-weight="bold" fill="rgba(255,255,255,0.95)" text-anchor="middle">SEO Checklist</text>
  <text x="600" y="140" font-family="Arial, sans-serif" font-size="24" fill="rgba(255,255,255,0.8)" text-anchor="middle">Next.js</text>
  
  <!-- Decorative lines -->
  <line x1="100" y1="300" x2="1100" y2="300" stroke="rgba(255,255,255,0.2)" stroke-width="2" stroke-dasharray="10,5"/>
  <line x1="100" y1="500" x2="1100" y2="500" stroke="rgba(255,255,255,0.2)" stroke-width="2" stroke-dasharray="10,5"/>
</svg>

