<svg width="1200" height="780" viewBox="0 0 1200 780" xmlns="http://www.w3.org/2000/svg">
  <defs>
    <linearGradient id="bgSeo" x1="0%" y1="0%" x2="100%" y2="100%">
      <stop offset="0%" stop-color="#0f172a"/>
      <stop offset="50%" stop-color="#1e293b"/>
      <stop offset="100%" stop-color="#2563eb"/>
    </linearGradient>
    <linearGradient id="accentSeo" x1="0%" y1="0%" x2="100%" y2="0%">
      <stop offset="0%" stop-color="#38bdf8"/>
      <stop offset="100%" stop-color="#818cf8"/>
    </linearGradient>
  </defs>
  <rect width="1200" height="780" fill="url(#bgSeo)"/>
  <g opacity="0.35">
    <circle cx="240" cy="180" r="160" fill="#38bdf8"/>
    <circle cx="980" cy="620" r="180" fill="#818cf8"/>
    <circle cx="620" cy="360" r="260" fill="#2563eb"/>
  </g>
  <g transform="translate(200 200)">
    <rect x="0" y="0" width="320" height="320" rx="28" fill="rgba(15,23,42,0.55)" stroke="rgba(148,163,184,0.35)" stroke-width="2"/>
    <g transform="translate(48 64)">
      <rect x="0" y="0" width="224" height="16" rx="8" fill="rgba(59,130,246,0.45)"/>
      <rect x="0" y="48" width="256" height="16" rx="8" fill="rgba(14,165,233,0.45)"/>
      <rect x="0" y="96" width="208" height="16" rx="8" fill="rgba(129,140,248,0.5)"/>
      <rect x="0" y="144" width="176" height="16" rx="8" fill="rgba(244,114,182,0.45)"/>
    </g>
  </g>
  <g transform="translate(560 200)">
    <rect x="0" y="0" width="440" height="320" rx="32" fill="rgba(15,23,42,0.4)" stroke="rgba(148,163,184,0.4)" stroke-width="2"/>
    <g transform="translate(48 64)">
      <circle cx="64" cy="64" r="64" fill="rgba(56,189,248,0.4)"/>
      <path d="M64 16 L120 64 L64 112 Z" fill="rgba(14,165,233,0.6)"/>
      <rect x="160" y="16" width="200" height="24" rx="12" fill="rgba(99,102,241,0.55)"/>
      <rect x="160" y="64" width="168" height="20" rx="10" fill="rgba(129,140,248,0.45)"/>
      <rect x="160" y="104" width="144" height="20" rx="10" fill="rgba(14,165,233,0.45)"/>
    </g>
  </g>
  <text x="200" y="580" fill="#e2e8f0" font-size="62" font-family="Vazirmatn, sans-serif" font-weight="700">چک‌لیست سئوی Next.js</text>
  <text x="200" y="636" fill="#cbd5f5" font-size="28" font-family="Vazirmatn, sans-serif" opacity="0.85">
    متادیتای دقیق، Core Web Vitals و ساختار داده برای رتبه بهتر
  </text>
  <rect x="200" y="672" width="360" height="6" rx="3" fill="url(#accentSeo)"/>
</svg>

